<?xml version="1.0" encoding="utf-8"?>
<!-- Generator: Adobe Illustrator 16.0.0, SVG Export Plug-In . SVG Version: 6.00 Build 0)  -->
<!DOCTYPE svg PUBLIC "-//W3C//DTD SVG 1.1//EN" "http://www.w3.org/Graphics/SVG/1.1/DTD/svg11.dtd">
<svg version="1.1" id="Layer" xmlns="http://www.w3.org/2000/svg" xmlns:xlink="http://www.w3.org/1999/xlink" x="0px" y="0px"
	 width="209px" height="206px" viewBox="0 0 209 206" enable-background="new 0 0 209 206" xml:space="preserve">
<g>
	<path fill="#999999" d="M209,188.633c0,8.103-3.141,17.367-11.175,17.367H17.666C9.632,206,0,196.735,0,188.633V29.277
		C0,21.175,9.632,17,17.666,17h180.159C205.859,17,209,21.175,209,29.277V188.633z"/>
	<path fill="#D9D9D9" d="M209,182.633c0,8.103-3.141,17.367-11.175,17.367H17.666C9.632,200,0,190.735,0,182.633V27.277
		C0,19.175,9.632,15,17.666,15h180.159C205.859,15,209,19.175,209,27.277V182.633z"/>
	<path fill="#262626" d="M198,169.764c0,7.241-5.32,13.236-12.5,13.236h-161c-7.18,0-13.5-5.995-13.5-13.236V33.611
		C11,26.37,17.32,21,24.5,21h161c7.18,0,12.5,5.37,12.5,12.611V169.764z"/>
	<path fill="#4C4C4C" d="M198,148.764c0,7.241-5.32,13.236-12.5,13.236h-161c-7.18,0-13.5-5.995-13.5-13.236V12.611
		C11,5.37,17.32,0,24.5,0h161c7.18,0,12.5,5.37,12.5,12.611V148.764z"/>
	<g>
		<path fill="#FF8100" d="M83.027,100.478c6.297,5.36,14.338,9.112,21.574,9.112c8.174,0,12.193-3.217,12.193-8.442
			c0-5.494-4.957-7.236-12.596-10.452l-11.391-4.824c-8.979-3.618-17.555-11.122-17.555-23.853c0-14.472,12.865-25.996,31.09-25.996
			c10.049,0,20.637,4.02,28.141,11.524l-10.051,12.462c-5.762-4.422-11.123-6.968-18.09-6.968c-6.834,0-11.123,2.948-11.123,7.906
			c0,5.36,5.762,7.236,13.268,10.318l11.256,4.556c10.586,4.288,17.285,11.391,17.285,23.718c0,14.473-12.061,27.068-32.965,27.068
			c-11.389,0-23.449-4.287-32.293-12.596L83.027,100.478z"/>
	</g>
</g>
</svg>
